<svg width="242" height="74" viewBox="0 0 242 74" fill="none" xmlns="http://www.w3.org/2000/svg">
<path fill-rule="evenodd" clip-rule="evenodd" d="M107.005 22.2531C104.685 22.2531 101.931 22.745 98.9232 26.2329V16.4718C98.9232 14.0059 96.9219 12 94.4616 12C92.0013 12 90 14.0059 90 16.4718V48.3042C90 50.77 92.0013 52.7759 94.4616 52.7759C96.9219 52.7759 98.9232 50.77 98.9232 48.3042V35.9494C98.9232 32.3976 100.606 30.4364 103.671 30.4364C106.673 30.4364 108.254 32.3401 108.254 35.9494V48.3042C108.254 50.77 110.255 52.7759 112.716 52.7759C115.176 52.7759 117.177 50.77 117.177 48.3042V33.3558C117.171 26.4054 113.372 22.2531 107.005 22.2531ZM132.628 22.4704C128.995 22.4704 126.114 22.9431 123.29 24.0036C121.824 24.553 120.843 25.9711 120.843 27.5299C120.843 29.6124 122.494 31.2414 124.603 31.2414C125.037 31.2414 125.4 31.1775 125.897 31.0114C127.612 30.4748 129.422 30.2193 131.442 30.2193C136.235 30.2193 137.255 32.8704 137.268 35.1127C135.604 34.5697 133.507 34.0714 130.582 34.0714C122.959 34.0714 118.586 37.5657 118.586 43.6665V43.7751C118.586 49.2881 122.717 52.9933 128.861 52.9933C132.322 52.9933 135.095 51.9392 137.306 49.78C137.682 51.3579 139.193 52.7824 141.513 52.7824C143.954 52.7824 145.866 50.8915 145.866 48.4768V35.2979C145.866 31.152 144.783 27.9579 142.635 25.8114C140.417 23.5947 137.051 22.4704 132.628 22.4704ZM131.334 46.5859C128.804 46.5859 127.236 45.3849 127.236 43.4493V43.3407C127.236 41.0345 129.161 39.7186 132.52 39.7186C134.24 39.7186 135.955 40.0571 137.376 40.6704V41.8905C137.376 44.6503 134.891 46.5859 131.334 46.5859ZM157.823 26.31C160.13 23.5822 162.973 22.2534 166.491 22.2534C173.203 22.2534 179.991 27.5109 179.991 37.566V37.6746C179.991 42.306 178.57 46.2284 175.886 49.0264C173.432 51.5881 170.099 52.9935 166.491 52.9935C163.018 52.9935 160.258 51.8053 157.868 49.2756V56.9414C157.868 59.4072 155.866 61.4131 153.406 61.4131C150.946 61.4131 148.944 59.4072 148.944 56.9414V26.9424C148.944 24.4765 150.946 22.4706 153.406 22.4706C155.656 22.4706 157.517 24.1444 157.823 26.31ZM171.074 37.566C171.074 33.2284 168.2 29.9512 164.388 29.9512C160.551 29.9512 157.759 33.1517 157.759 37.566V37.6746C157.759 42.0888 160.545 45.2893 164.388 45.2893C168.263 45.2893 171.074 42.0888 171.074 37.6746V37.566ZM199.597 22.2534C196.078 22.2534 193.236 23.5822 190.928 26.31C190.622 24.1444 188.761 22.4706 186.511 22.4706C184.051 22.4706 182.05 24.4765 182.05 26.9424V56.9414C182.05 59.4072 184.051 61.4131 186.511 61.4131C188.972 61.4131 190.973 59.4072 190.973 56.9414V49.2756C193.363 51.8053 196.123 52.9935 199.597 52.9935C203.204 52.9935 206.538 51.5881 208.992 49.0264C211.675 46.2284 213.096 42.306 213.096 37.6746V37.566C213.096 27.5109 206.308 22.2534 199.597 22.2534ZM197.493 29.9512C201.305 29.9512 204.179 33.2284 204.179 37.566V37.6746C204.179 42.0888 201.369 45.2893 197.493 45.2893C193.65 45.2893 190.865 42.0888 190.865 37.6746V37.566C190.865 33.1517 193.656 29.9512 197.493 29.9512ZM233.002 25.8435C233.83 23.6331 235.309 22.4705 237.278 22.4705C239.656 22.4705 241.523 24.2911 241.517 26.6037C241.517 27.2744 241.3 28.2454 241.109 28.6926L231.045 52.9167C228.515 59.0557 225.876 61.2341 220.962 61.2341C219.228 61.2341 217.896 61.0041 216.366 60.4548C215.314 60.0715 213.543 59.0749 213.543 56.7113C213.543 54.386 215.372 52.9997 217.137 52.9997C217.838 52.9997 218.259 53.1211 218.597 53.2361C219.292 53.4533 219.674 53.5427 220.203 53.5427C221.542 53.5427 222.103 53.3255 222.778 52.0287L222.982 51.5432L213.192 28.8076C212.969 28.2454 212.733 27.3766 212.733 26.7697C212.733 24.3167 214.626 22.4641 217.137 22.4641C219.209 22.4641 220.611 23.5501 221.414 25.786L227.31 41.6734L233.002 25.8435Z" fill="black" fill-opacity="0.2"/>
<path fill-rule="evenodd" clip-rule="evenodd" d="M105.488 22.7864C103.168 22.7864 100.414 23.2783 97.4059 26.7662V17.0051C97.4059 14.5392 95.4046 12.5333 92.9443 12.5333C90.484 12.5333 88.4827 14.5392 88.4827 17.0051V48.8375C88.4827 51.3033 90.484 53.3092 92.9443 53.3092C95.4046 53.3092 97.4059 51.3033 97.4059 48.8375V36.4827C97.4059 32.9309 99.0886 30.9697 102.154 30.9697C105.156 30.9697 106.737 32.8734 106.737 36.4827V48.8375C106.737 51.3033 108.738 53.3092 111.199 53.3092C113.659 53.3092 115.66 51.3033 115.66 48.8375V33.8891C115.654 26.9387 111.855 22.7864 105.488 22.7864ZM131.111 23.0037C127.478 23.0037 124.597 23.4764 121.773 24.5369C120.307 25.0863 119.326 26.5044 119.326 28.0632C119.326 30.1457 120.977 31.7747 123.086 31.7747C123.52 31.7747 123.883 31.7108 124.38 31.5447C126.095 31.0081 127.905 30.7526 129.925 30.7526C134.718 30.7526 135.738 33.4037 135.751 35.646C134.087 35.103 131.99 34.6047 129.065 34.6047C121.442 34.6047 117.069 38.099 117.069 44.1998V44.3084C117.069 49.8214 121.2 53.5266 127.344 53.5266C130.805 53.5266 133.578 52.4725 135.789 50.3133C136.165 51.8912 137.676 53.3157 139.996 53.3157C142.437 53.3157 144.349 51.4248 144.349 49.0101V35.8312C144.349 31.6853 143.266 28.4912 141.118 26.3447C138.9 24.128 135.534 23.0037 131.111 23.0037ZM129.817 47.1192C127.287 47.1192 125.719 45.9182 125.719 43.9826V43.874C125.719 41.5678 127.644 40.2519 131.003 40.2519C132.723 40.2519 134.438 40.5904 135.859 41.2037V42.4238C135.859 45.1836 133.374 47.1192 129.817 47.1192ZM156.306 26.8433C158.613 24.1155 161.456 22.7867 164.974 22.7867C171.686 22.7867 178.474 28.0442 178.474 38.0993V38.2079C178.474 42.8393 177.053 46.7617 174.369 49.5597C171.915 52.1214 168.582 53.5268 164.974 53.5268C161.501 53.5268 158.741 52.3386 156.351 49.8089V57.4747C156.351 59.9405 154.349 61.9464 151.889 61.9464C149.429 61.9464 147.427 59.9405 147.427 57.4747V27.4757C147.427 25.0098 149.429 23.0039 151.889 23.0039C154.139 23.0039 156 24.6777 156.306 26.8433ZM169.557 38.0993C169.557 33.7617 166.683 30.4845 162.871 30.4845C159.034 30.4845 156.242 33.685 156.242 38.0993V38.2079C156.242 42.6221 159.028 45.8226 162.871 45.8226C166.746 45.8226 169.557 42.6221 169.557 38.2079V38.0993ZM198.08 22.7867C194.561 22.7867 191.719 24.1155 189.411 26.8433C189.105 24.6777 187.244 23.0039 184.994 23.0039C182.534 23.0039 180.533 25.0098 180.533 27.4757V57.4747C180.533 59.9405 182.534 61.9464 184.994 61.9464C187.455 61.9464 189.456 59.9405 189.456 57.4747V49.8089C191.846 52.3386 194.606 53.5268 198.08 53.5268C201.687 53.5268 205.021 52.1214 207.475 49.5597C210.158 46.7617 211.579 42.8393 211.579 38.2079V38.0993C211.579 28.0442 204.791 22.7867 198.08 22.7867ZM195.976 30.4845C199.788 30.4845 202.662 33.7617 202.662 38.0993V38.2079C202.662 42.6221 199.852 45.8226 195.976 45.8226C192.133 45.8226 189.348 42.6221 189.348 38.2079V38.0993C189.348 33.685 192.139 30.4845 195.976 30.4845ZM231.485 26.3768C232.313 24.1664 233.792 23.0038 235.761 23.0038C238.139 23.0038 240.006 24.8244 240 27.137C240 27.8077 239.783 28.7787 239.592 29.2259L229.528 53.45C226.998 59.589 224.359 61.7674 219.445 61.7674C217.711 61.7674 216.379 61.5374 214.849 60.9881C213.797 60.6048 212.026 59.6082 212.026 57.2446C212.026 54.9193 213.855 53.533 215.62 53.533C216.321 53.533 216.742 53.6544 217.08 53.7694C217.775 53.9866 218.157 54.076 218.686 54.076C220.025 54.076 220.586 53.8588 221.261 52.562L221.465 52.0765L211.675 29.3409C211.452 28.7787 211.216 27.9099 211.216 27.303C211.216 24.85 213.109 22.9974 215.62 22.9974C217.692 22.9974 219.094 24.0834 219.897 26.3193L225.793 42.2067L231.485 26.3768Z" fill="white"/>
<path fill-rule="evenodd" clip-rule="evenodd" d="M65.9739 44.9078V18.7786C65.9739 8.40794 57.5339 0 47.1237 0H20.8503C10.44 0 2 8.40794 2 18.7786V44.9078C2 55.2784 10.44 63.6863 20.8439 63.6863H22.7569L32.4108 73.3036L32.4172 73.3099L32.5824 73.4745C32.9574 73.8037 33.4467 74 33.987 74C34.5717 74 35.0992 73.7594 35.4805 73.3795L45.217 63.6863H47.1237C57.5339 63.6863 65.9739 55.2784 65.9739 44.9078ZM15.0582 39.8248C13.9814 38.3036 15.0392 36.197 16.895 36.197H51.0787C52.9345 36.197 53.9923 38.3036 52.9155 39.8248C48.7289 45.7437 41.8123 49.6133 33.99 49.6133C26.1677 49.6133 19.2449 45.7501 15.0582 39.8248ZM16.5658 27.2298V21.6036C16.5658 18.4977 19.074 15.9774 22.1649 15.9774C25.2558 15.9774 27.764 18.4977 27.764 21.6036V27.2298H16.5658ZM40.2166 27.2298H51.4148V21.6036C51.4148 18.4977 48.9066 15.9774 45.8157 15.9774C42.7248 15.9774 40.2166 18.4977 40.2166 21.6036V27.2298Z" fill="black" fill-opacity="0.2"/>
<path fill-rule="evenodd" clip-rule="evenodd" d="M63.9739 44.9078V18.7786C63.9739 8.40794 55.5339 0 45.1237 0H18.8503C8.44003 0 0 8.40794 0 18.7786V44.9078C0 55.2784 8.44003 63.6863 18.8439 63.6863H20.7569L30.4108 73.3036L30.4172 73.3099L30.5824 73.4745C30.9574 73.8037 31.4467 74 31.987 74C32.5717 74 33.0992 73.7594 33.4805 73.3795L43.217 63.6863H45.1237C55.5339 63.6863 63.9739 55.2784 63.9739 44.9078ZM13.0582 39.8248C11.9814 38.3036 13.0392 36.197 14.895 36.197H49.0787C50.9345 36.197 51.9923 38.3036 50.9155 39.8248C46.7289 45.7437 39.8123 49.6133 31.99 49.6133C24.1677 49.6133 17.2449 45.7501 13.0582 39.8248ZM14.5658 27.2298V21.6036C14.5658 18.4977 17.074 15.9774 20.1649 15.9774C23.2558 15.9774 25.764 18.4977 25.764 21.6036V27.2298H14.5658ZM38.2166 27.2298H49.4148V21.6036C49.4148 18.4977 46.9066 15.9774 43.8157 15.9774C40.7248 15.9774 38.2166 18.4977 38.2166 21.6036V27.2298Z" fill="#FFD666"/>
</svg>
